<mxfile host="app.diagrams.net" modified="2021-10-08T09:28:40.486Z" agent="5.0 (Macintosh; Intel Mac OS X 10_15_7) AppleWebKit/605.1.15 (KHTML, like Gecko) Version/15.0 Safari/605.1.15" etag="7xcgdj73WVOGLPwbH8MY" version="15.4.3" type="github">
  <diagram id="C5RBs43oDa-KdzZeNtuy" name="Page-1">
    <mxGraphModel dx="1074" dy="720" grid="1" gridSize="10" guides="1" tooltips="1" connect="1" arrows="1" fold="1" page="1" pageScale="1" pageWidth="827" pageHeight="1169" math="0" shadow="0">
      <root>
        <mxCell id="WIyWlLk6GJQsqaUBKTNV-0" />
        <mxCell id="WIyWlLk6GJQsqaUBKTNV-1" parent="WIyWlLk6GJQsqaUBKTNV-0" />
        <mxCell id="QwOlUMWWTFqCxnu2GCyS-5" style="edgeStyle=orthogonalEdgeStyle;rounded=0;orthogonalLoop=1;jettySize=auto;html=1;" edge="1" parent="WIyWlLk6GJQsqaUBKTNV-1" source="QwOlUMWWTFqCxnu2GCyS-0" target="QwOlUMWWTFqCxnu2GCyS-1">
          <mxGeometry relative="1" as="geometry" />
        </mxCell>
        <mxCell id="QwOlUMWWTFqCxnu2GCyS-0" value="Начало" style="ellipse;whiteSpace=wrap;html=1;" vertex="1" parent="WIyWlLk6GJQsqaUBKTNV-1">
          <mxGeometry x="200" y="40" width="140" height="60" as="geometry" />
        </mxCell>
        <mxCell id="QwOlUMWWTFqCxnu2GCyS-6" style="edgeStyle=orthogonalEdgeStyle;rounded=0;orthogonalLoop=1;jettySize=auto;html=1;entryX=0.5;entryY=0;entryDx=0;entryDy=0;" edge="1" parent="WIyWlLk6GJQsqaUBKTNV-1" source="QwOlUMWWTFqCxnu2GCyS-1" target="QwOlUMWWTFqCxnu2GCyS-2">
          <mxGeometry relative="1" as="geometry" />
        </mxCell>
        <mxCell id="QwOlUMWWTFqCxnu2GCyS-1" value="Окно входа/регистрации" style="rounded=0;whiteSpace=wrap;html=1;" vertex="1" parent="WIyWlLk6GJQsqaUBKTNV-1">
          <mxGeometry x="180" y="130" width="180" height="60" as="geometry" />
        </mxCell>
        <mxCell id="QwOlUMWWTFqCxnu2GCyS-7" style="edgeStyle=orthogonalEdgeStyle;rounded=0;orthogonalLoop=1;jettySize=auto;html=1;" edge="1" parent="WIyWlLk6GJQsqaUBKTNV-1" source="QwOlUMWWTFqCxnu2GCyS-2" target="QwOlUMWWTFqCxnu2GCyS-3">
          <mxGeometry relative="1" as="geometry" />
        </mxCell>
        <mxCell id="QwOlUMWWTFqCxnu2GCyS-13" style="edgeStyle=orthogonalEdgeStyle;rounded=0;orthogonalLoop=1;jettySize=auto;html=1;endArrow=none;endFill=0;" edge="1" parent="WIyWlLk6GJQsqaUBKTNV-1" source="QwOlUMWWTFqCxnu2GCyS-2">
          <mxGeometry relative="1" as="geometry">
            <mxPoint x="80" y="500" as="targetPoint" />
          </mxGeometry>
        </mxCell>
        <mxCell id="QwOlUMWWTFqCxnu2GCyS-2" value="Уже есть аккаунт?" style="rhombus;whiteSpace=wrap;html=1;" vertex="1" parent="WIyWlLk6GJQsqaUBKTNV-1">
          <mxGeometry x="180" y="220" width="180" height="80" as="geometry" />
        </mxCell>
        <mxCell id="QwOlUMWWTFqCxnu2GCyS-8" style="edgeStyle=orthogonalEdgeStyle;rounded=0;orthogonalLoop=1;jettySize=auto;html=1;" edge="1" parent="WIyWlLk6GJQsqaUBKTNV-1" source="QwOlUMWWTFqCxnu2GCyS-3" target="QwOlUMWWTFqCxnu2GCyS-4">
          <mxGeometry relative="1" as="geometry" />
        </mxCell>
        <mxCell id="QwOlUMWWTFqCxnu2GCyS-3" value="Ввод данных пользователя" style="shape=parallelogram;perimeter=parallelogramPerimeter;whiteSpace=wrap;html=1;fixedSize=1;" vertex="1" parent="WIyWlLk6GJQsqaUBKTNV-1">
          <mxGeometry x="180" y="330" width="180" height="60" as="geometry" />
        </mxCell>
        <mxCell id="QwOlUMWWTFqCxnu2GCyS-12" style="edgeStyle=orthogonalEdgeStyle;rounded=0;orthogonalLoop=1;jettySize=auto;html=1;entryX=0.5;entryY=0;entryDx=0;entryDy=0;" edge="1" parent="WIyWlLk6GJQsqaUBKTNV-1" source="QwOlUMWWTFqCxnu2GCyS-4" target="QwOlUMWWTFqCxnu2GCyS-10">
          <mxGeometry relative="1" as="geometry" />
        </mxCell>
        <mxCell id="QwOlUMWWTFqCxnu2GCyS-4" value="Запись данных пользователя в БД" style="rounded=0;whiteSpace=wrap;html=1;" vertex="1" parent="WIyWlLk6GJQsqaUBKTNV-1">
          <mxGeometry x="190" y="420" width="160" height="60" as="geometry" />
        </mxCell>
        <mxCell id="QwOlUMWWTFqCxnu2GCyS-9" value="Нет" style="text;html=1;strokeColor=none;fillColor=none;align=center;verticalAlign=middle;whiteSpace=wrap;rounded=0;" vertex="1" parent="WIyWlLk6GJQsqaUBKTNV-1">
          <mxGeometry x="262" y="298" width="60" height="30" as="geometry" />
        </mxCell>
        <mxCell id="QwOlUMWWTFqCxnu2GCyS-20" style="edgeStyle=orthogonalEdgeStyle;rounded=0;orthogonalLoop=1;jettySize=auto;html=1;endArrow=classic;endFill=1;" edge="1" parent="WIyWlLk6GJQsqaUBKTNV-1" source="QwOlUMWWTFqCxnu2GCyS-10" target="QwOlUMWWTFqCxnu2GCyS-19">
          <mxGeometry relative="1" as="geometry" />
        </mxCell>
        <mxCell id="QwOlUMWWTFqCxnu2GCyS-10" value="Пользователь входит в систему" style="rounded=0;whiteSpace=wrap;html=1;" vertex="1" parent="WIyWlLk6GJQsqaUBKTNV-1">
          <mxGeometry x="190" y="520" width="160" height="60" as="geometry" />
        </mxCell>
        <mxCell id="QwOlUMWWTFqCxnu2GCyS-15" style="edgeStyle=orthogonalEdgeStyle;rounded=0;orthogonalLoop=1;jettySize=auto;html=1;endArrow=classic;endFill=1;" edge="1" parent="WIyWlLk6GJQsqaUBKTNV-1">
          <mxGeometry relative="1" as="geometry">
            <mxPoint x="270" y="500" as="targetPoint" />
            <mxPoint x="80" y="500" as="sourcePoint" />
          </mxGeometry>
        </mxCell>
        <mxCell id="QwOlUMWWTFqCxnu2GCyS-16" value="Да" style="text;html=1;strokeColor=none;fillColor=none;align=center;verticalAlign=middle;whiteSpace=wrap;rounded=0;" vertex="1" parent="WIyWlLk6GJQsqaUBKTNV-1">
          <mxGeometry x="103" y="235" width="60" height="30" as="geometry" />
        </mxCell>
        <mxCell id="QwOlUMWWTFqCxnu2GCyS-19" value="Конец" style="ellipse;whiteSpace=wrap;html=1;" vertex="1" parent="WIyWlLk6GJQsqaUBKTNV-1">
          <mxGeometry x="200" y="610" width="140" height="60" as="geometry" />
        </mxCell>
        <mxCell id="QwOlUMWWTFqCxnu2GCyS-27" style="edgeStyle=orthogonalEdgeStyle;rounded=0;orthogonalLoop=1;jettySize=auto;html=1;endArrow=classic;endFill=1;" edge="1" parent="WIyWlLk6GJQsqaUBKTNV-1" source="QwOlUMWWTFqCxnu2GCyS-21" target="QwOlUMWWTFqCxnu2GCyS-23">
          <mxGeometry relative="1" as="geometry" />
        </mxCell>
        <mxCell id="QwOlUMWWTFqCxnu2GCyS-21" value="Начало" style="ellipse;whiteSpace=wrap;html=1;" vertex="1" parent="WIyWlLk6GJQsqaUBKTNV-1">
          <mxGeometry x="540" y="40" width="140" height="60" as="geometry" />
        </mxCell>
        <mxCell id="QwOlUMWWTFqCxnu2GCyS-28" style="edgeStyle=orthogonalEdgeStyle;rounded=0;orthogonalLoop=1;jettySize=auto;html=1;endArrow=classic;endFill=1;" edge="1" parent="WIyWlLk6GJQsqaUBKTNV-1" source="QwOlUMWWTFqCxnu2GCyS-23" target="QwOlUMWWTFqCxnu2GCyS-25">
          <mxGeometry relative="1" as="geometry" />
        </mxCell>
        <mxCell id="QwOlUMWWTFqCxnu2GCyS-23" value="Переход на вкладу с рейтинговыми результатами" style="rounded=0;whiteSpace=wrap;html=1;" vertex="1" parent="WIyWlLk6GJQsqaUBKTNV-1">
          <mxGeometry x="520" y="130" width="180" height="60" as="geometry" />
        </mxCell>
        <mxCell id="QwOlUMWWTFqCxnu2GCyS-29" style="edgeStyle=orthogonalEdgeStyle;rounded=0;orthogonalLoop=1;jettySize=auto;html=1;entryX=0.5;entryY=0;entryDx=0;entryDy=0;endArrow=classic;endFill=1;" edge="1" parent="WIyWlLk6GJQsqaUBKTNV-1" source="QwOlUMWWTFqCxnu2GCyS-25" target="QwOlUMWWTFqCxnu2GCyS-26">
          <mxGeometry relative="1" as="geometry" />
        </mxCell>
        <mxCell id="QwOlUMWWTFqCxnu2GCyS-25" value="Обновление БД по последним данным и вывод новых лидеров" style="rounded=0;whiteSpace=wrap;html=1;" vertex="1" parent="WIyWlLk6GJQsqaUBKTNV-1">
          <mxGeometry x="520" y="220" width="180" height="60" as="geometry" />
        </mxCell>
        <mxCell id="QwOlUMWWTFqCxnu2GCyS-26" value="Конец" style="ellipse;whiteSpace=wrap;html=1;" vertex="1" parent="WIyWlLk6GJQsqaUBKTNV-1">
          <mxGeometry x="540" y="310" width="140" height="60" as="geometry" />
        </mxCell>
      </root>
    </mxGraphModel>
  </diagram>
</mxfile>
